<svg width="49" height="49" viewBox="0 0 49 49" fill="none" xmlns="http://www.w3.org/2000/svg">
<path d="M42.1493 27.6176L41.3438 27.1521C40.3853 26.5993 39.8126 25.6071 39.8126 24.5C39.8126 23.3929 40.3853 22.4007 41.3438 21.8479L42.1493 21.3824C44.3481 20.1114 45.1 17.3062 43.8306 15.1073L42.2993 12.4552C41.033 10.2609 38.217 9.50753 36.0242 10.7739L35.2188 11.2378C34.2603 11.7922 33.1133 11.7922 32.1563 11.2378C31.1978 10.6835 30.6251 9.69281 30.6251 8.58572V7.65625C30.6251 5.12356 28.564 3.0625 26.0313 3.0625H22.9688C20.4361 3.0625 18.3751 5.12356 18.3751 7.65625V8.58725C18.3751 9.69434 17.8024 10.6851 16.8438 11.2394C15.8853 11.7922 14.7399 11.7937 13.7813 11.2394L12.9759 10.7739C10.7831 9.50753 7.96716 10.2609 6.69928 12.4552L5.16803 15.1073C3.89863 17.3062 4.65047 20.113 6.84935 21.3824L7.65631 21.8479C8.61488 22.4007 9.18756 23.3929 9.18756 24.5C9.18756 25.6071 8.61488 26.5993 7.65631 27.1521L6.85088 27.6176C4.652 28.887 3.90016 31.6938 5.16956 33.8927L6.70081 36.5448C7.96869 38.7391 10.7847 39.4925 12.9759 38.2261L13.7813 37.7622C14.7399 37.2063 15.8853 37.2094 16.8438 37.7622C17.8024 38.3165 18.3751 39.3072 18.3751 40.4143V41.3438C18.3751 43.8764 20.4361 45.9375 22.9688 45.9375H26.0313C28.564 45.9375 30.6251 43.8764 30.6251 41.3438V40.4128C30.6251 39.3057 31.1978 38.3149 32.1563 37.7606C33.1133 37.2078 34.2603 37.2063 35.2188 37.7606L36.0242 38.2261C38.217 39.4909 41.033 38.7376 42.2993 36.5448L43.8306 33.8927C45.1 31.6938 44.3481 28.887 42.1493 27.6176ZM24.5001 32.1562C20.2784 32.1562 16.8438 28.7217 16.8438 24.5C16.8438 20.2783 20.2784 16.8438 24.5001 16.8438C28.7217 16.8438 32.1563 20.2783 32.1563 24.5C32.1563 28.7217 28.7217 32.1562 24.5001 32.1562Z" fill="white"/>
</svg>
