<svg width="192" height="40" viewBox="0 0 192 40" fill="none" xmlns="http://www.w3.org/2000/svg">
<g clip-path="url(#clip0_9_574)">
<path d="M48.7829 1.23433L52.8 38.5715H39.4612L38.6372 11.9315L33.4871 38.5715H19.9938L14.7407 12.1372L13.9682 38.5715H0.629456L4.64653 1.23433H22.1569L26.6375 25.56L30.5515 1.23433H48.7829ZM97.0791 10.8515H69.0625V16.2515C70.8136 16.2858 73.4401 16.3029 76.9422 16.3029C82.985 16.3029 89.1307 16.2 95.3795 15.9943V26.0743C89.1307 25.8343 82.5386 25.7143 75.6032 25.7143C72.7191 25.7143 70.5389 25.7315 69.0625 25.7658V38.5715H56.9083C57.183 31.92 57.3203 25.6972 57.3203 19.9029C57.3203 14.1086 57.183 7.88576 56.9083 1.23433H97.0791V10.8515ZM123.878 39.0858C116.118 39.0858 110.402 37.44 106.728 34.1486C103.054 30.8572 101.217 26.16 101.217 20.0572C101.217 13.92 103.054 9.06861 106.728 5.5029C110.402 1.93719 116.118 0.154327 123.878 0.154327C134.727 0.154327 141.989 3.87433 145.663 11.3143C142.573 12.3772 138.95 13.9715 134.796 16.0972C133.8 14.1772 132.221 12.7543 130.058 11.8286C127.929 10.9029 125.749 10.44 123.517 10.44C120.221 10.44 117.766 11.3143 116.153 13.0629C114.539 14.7772 113.732 16.9029 113.732 19.44C113.732 22.1829 114.59 24.4286 116.307 26.1772C118.058 27.8915 120.719 28.7486 124.29 28.7486C127.139 28.7486 129.406 28.2858 131.088 27.36C132.77 26.4 134.006 24.8915 134.796 22.8343C137.611 24.3429 141.216 26.04 145.612 27.9258C143.895 32.0743 141.028 34.9715 137.01 36.6172C132.993 38.2629 128.616 39.0858 123.878 39.0858ZM169.461 17.28H191.452V38.5715H182.388L181.306 29.4686C180.276 32.7258 178.439 35.1429 175.796 36.72C173.152 38.2972 169.925 39.0858 166.114 39.0858C162.646 39.0858 159.556 38.3143 156.843 36.7715C154.165 35.2286 152.054 33.0172 150.509 30.1372C148.998 27.2572 148.243 23.8972 148.243 20.0572C148.243 13.92 150.08 9.06861 153.753 5.5029C157.427 1.93719 163.144 0.154327 170.903 0.154327C175.332 0.154327 179.229 0.874328 182.594 2.31433C185.993 3.75433 188.877 5.9829 191.246 9.00004C189.701 9.78861 186.68 11.3658 182.182 13.7315L180.894 14.4515C179.555 13.1143 177.993 12.12 176.208 11.4686C174.422 10.7829 172.534 10.44 170.543 10.44C167.247 10.44 164.792 11.3143 163.178 13.0629C161.564 14.7772 160.757 16.9029 160.757 19.44C160.757 22.1829 161.616 24.3943 163.333 26.0743C165.084 27.7543 167.744 28.5943 171.315 28.5943C172.86 28.5943 174.354 28.3715 175.796 27.9258C177.272 27.48 178.508 26.7086 179.504 25.6115H169.461V17.28Z" fill="#E6B030"/>
<path fill-rule="evenodd" clip-rule="evenodd" d="M113.119 1.60393C113.434 1.36829 114.249 1.00657 114.485 1.32076L115.624 3.75436C115.86 4.06855 117.107 6.00078 116.792 6.23642C116.038 5.05114 114.387 3.33306 114.151 3.01887L112.264 2.26416C112.028 1.94997 112.804 1.83958 113.119 1.60393ZM179.434 1.50944C179.683 1.8134 178.977 3.1439 178.672 3.39259L176.829 4.89875C176.525 5.14744 175.66 5.6012 174.528 5.93344C174.279 5.62948 175.623 4.0467 175.927 3.798L177.17 1.1321C177.474 0.883405 179.185 1.20548 179.434 1.50944ZM184.172 2.94442C184.393 3.26918 184.309 3.71148 183.983 3.93232L179.795 6.77727C179.469 6.99811 178.146 7.30592 177.925 6.98116C178.672 6.41512 180.996 4.01884 181.321 3.798L182.075 2.0755C182.401 1.85466 183.951 2.61966 184.172 2.94442ZM109.107 3.1074C109.33 2.78429 110.39 2.60695 110.714 2.83019C110.971 3.00766 111.29 3.1884 111.509 3.39623C111.887 3.75436 112.264 3.96227 112.453 4.5787C112.805 4.75433 113.585 5.66038 113.962 6.32322C112.977 6.03774 112.293 5.18357 111.321 4.5787C110.704 4.19472 110.433 4.08228 109.811 3.96227C109.534 3.90872 109.092 4.1171 108.868 3.96227C108.544 3.73902 108.883 3.43052 109.107 3.1074ZM56.2078 5.25851C56.2597 4.86921 56.6178 4.59571 57.0076 4.64762L59.5209 4.98232C59.9106 5.03422 64.9576 4.59303 64.9056 4.98232C64.8537 5.37161 59.7224 6.44397 59.3327 6.39206L56.8194 6.05736C56.4296 6.00546 56.1558 5.6478 56.2078 5.25851ZM186.678 4.9424C186.905 5.26326 186.828 5.70696 186.507 5.93344L183.659 7.94165C183.337 8.16813 181.548 8.62276 181.321 8.30191C181.094 7.98106 184.207 5.88689 184.528 5.6604L185.849 3.96229C186.17 3.7358 186.451 4.62155 186.678 4.9424ZM104.713 6.51434C104.904 6.1707 105.337 6.04628 105.681 6.23642C105.87 6.34107 107.17 6.87672 107.358 6.98114C108.614 7.67643 108.743 7.93212 110.011 8.5655C110.363 8.74113 111.132 9.43397 111.887 10.3475C110.851 10.1887 108.578 8.74113 108.226 8.5655C106.929 7.91748 106.965 7.99013 105.472 7.48084C105.284 7.37665 105.179 7.58442 104.991 7.48084C104.647 7.29069 104.523 6.85798 104.713 6.51434ZM66.0377 7.73585C66.0733 8.12698 62.3961 8.36803 62.0045 8.40358C60.4906 8.54105 58.7339 8.97765 57.2056 9.05661C56.813 9.07689 56.7254 8.45904 56.7051 8.06683C56.6848 7.67461 56.813 7.00749 57.2056 6.9872C58.7084 6.90957 60.3714 7.12378 61.8756 6.9872C62.2672 6.95164 66.0021 7.34473 66.0377 7.73585ZM150.046 10.3953C150.126 10.0108 150.27 9.35387 150.655 9.43396C151.26 9.56001 152.131 10.094 152.774 10.2188C153.55 10.3696 154.334 10.522 155.081 10.6818C155.465 10.7641 156.547 11.2376 156.464 11.6216C154.717 11.1321 153.969 11.2144 153.585 11.1321C152.819 10.9681 152.453 11.1321 151.509 11.3208C150.877 11.1982 150.713 11.4595 150.046 11.3208C149.661 11.2407 149.966 10.7798 150.046 10.3953ZM66.0377 11.6981C65.6604 11.6981 61.3207 11.093 59.645 11.5843L57.4529 12.2642C57.0607 12.2921 56.5664 11.4848 56.5384 11.093C56.5104 10.7013 56.8134 9.8393 57.2056 9.81132L59.5436 10.1657C59.9358 10.1378 66.0097 11.3064 66.0377 11.6981ZM101.624 10.8913C101.708 10.5076 102.087 10.2641 102.471 10.3475C103.306 10.5288 103.298 10.723 104.151 10.8913C105.882 11.2328 105.633 11.0308 107.358 11.5094C107.737 11.6146 109.623 12.0755 110.714 12.9062C109.288 12.4528 108.115 12.3693 107.736 12.2642C106.06 11.7993 106.689 12.0718 104.991 11.7373C104.125 11.5665 103.061 11.931 102.169 11.7373C101.785 11.6538 101.541 11.2751 101.624 10.8913ZM147.525 14.2897C147.58 13.9008 148.856 13.1525 149.245 13.2076C150.079 13.3254 149.996 13.9142 150.831 14.0185C151.221 14.0672 151.509 14.5283 152.264 14.9057C151.132 15.4297 149.824 14.9544 149.434 14.9057C148.591 14.8005 148.971 15.2124 148.13 15.0935C147.74 15.0384 147.469 14.6786 147.525 14.2897ZM56.7042 14.8914C56.7042 14.4987 56.9861 13.5849 57.3793 13.5849L61.1023 14.1803C61.4955 14.1803 65.283 14.3242 65.283 14.717C65.283 15.1097 61.4955 15.6026 61.1023 15.6026L57.4161 16.2264C57.0229 16.2264 56.7042 15.2842 56.7042 14.8914ZM99.7661 16.0265C99.7862 15.6343 100.121 15.3326 100.514 15.3527L107.048 15.6874C107.441 15.7075 109.245 16.2264 110.218 16.4151C109.057 16.7925 104.355 16.4352 103.962 16.4151L100.514 17.1078C100.121 17.0877 99.7459 16.4187 99.7661 16.0265ZM50.3994 16.8945C50.4948 17.2755 50.2629 17.6616 49.8814 17.7569L47.3585 17.9089C46.977 18.0041 45.849 18.1132 44.717 18.1132C44.6216 17.7322 46.4737 17.1418 46.8552 17.0465L49.536 16.3771C49.9175 16.2819 50.3041 16.5135 50.3994 16.8945ZM147.182 18.7405C147.182 18.3478 147.909 17.9245 148.302 17.9245H151.132C151.525 17.9245 155.141 18.3478 155.141 18.7405C153.585 19.2453 152.091 19.2453 151.698 19.2453L148.13 20.1887C147.737 20.1887 147.182 19.1332 147.182 18.7405ZM2.09228 18.7878C2.15864 18.4007 2.4426 17.8582 2.83017 17.9245C3.97423 18.1202 4.45182 18.7571 5.84904 19.434C6.23247 19.521 8.76637 20.4503 8.67923 20.8332C8.59209 21.2162 7.08975 20.5209 5.9873 20.2707C4.88484 20.0204 3.7903 19.7997 2.67387 19.6088C2.2863 19.5425 2.02591 19.1749 2.09228 18.7878ZM56.2015 19.2425C56.2015 18.8498 56.9061 17.9089 57.2993 17.9089L62.7778 18.5314C63.171 18.5314 65.283 18.8498 65.283 19.2425C65.283 19.6353 63.171 19.9537 62.7778 19.9537L57.2056 20.6599C56.8124 20.6599 56.2015 19.6353 56.2015 19.2425ZM51.0865 20.0008C51.13 20.3911 51.3142 21.6547 50.9233 21.6981L47.3585 21.3208C46.9677 21.3641 44.9634 21.4156 43.7736 20.9434C43.7302 20.5531 48.4771 20.0441 48.8679 20.0008L50.3003 19.3725C50.6911 19.3292 51.0431 19.6104 51.0865 20.0008ZM99.096 20.2068C99.1181 19.8147 99.4542 19.5146 99.8468 19.5367C100.357 19.5653 100.866 19.5956 101.373 19.6259C103.434 19.7488 101.919 19.5367 103.962 19.5367C104.355 19.5367 108.226 20.1886 108.226 20.5814C108.226 20.9741 105.865 20.5814 105.472 20.5814C103.382 20.5814 103.334 21.1677 101.27 21.0445C100.767 21.0145 100.266 20.9846 99.767 20.9566C99.3744 20.9346 99.074 20.5989 99.096 20.2068ZM2.29513 20.8332C2.43346 20.4656 2.84399 20.2796 3.21206 20.4177C4.71039 20.9802 6.10049 21.4899 7.59376 21.7194C7.98239 21.7791 8.30187 21.8868 9.43394 22.5303C8.11319 22.5303 6.69151 22.59 6.30287 22.5303C4.64269 22.2752 3.81946 22.8213 2.3352 22.2642C1.96713 22.126 2.15679 21.2009 2.29513 20.8332ZM154.782 21.8868C154.902 22.2608 152.073 22.6286 151.698 22.7483C150.469 23.141 149.748 24.3285 148.518 24.717C148.143 24.8354 148.172 24.0151 148.053 23.6406C147.935 23.2662 148.143 22.8666 148.518 22.7483C149.746 22.3604 149.427 22.4678 150.655 22.0755C151.029 21.9558 154.663 21.5127 154.782 21.8868ZM108.226 23.2076C107.377 23.5849 105.476 24.6242 105.094 24.717C103.455 25.1153 103.481 25.7107 101.887 26.2264C101.513 26.3474 100.424 25.5252 100.302 25.1516C100.181 24.7779 100.386 24.3769 100.76 24.2559C102.404 23.7242 102.31 24.175 103.962 23.7736C104.344 23.6808 106.981 23.0189 108.226 23.2076ZM44.717 23.5849C45.849 23.2366 47.9087 23.2366 48.3019 23.2366L50.2114 23.0499C50.6046 23.0499 50.9233 23.3683 50.9233 23.761C50.9233 24.1537 51.3166 24.7581 50.9233 24.7581L49.0566 24.3396C48.6634 24.3396 46.4151 23.9623 44.717 23.5849ZM64.3396 22.523C63.2075 23.0499 60.7599 24.6672 60.3773 24.7581C59.4277 24.9839 58.158 26.5723 57.2056 26.7925C56.8226 26.881 56.4761 25.1407 56.3874 24.7581C56.2987 24.3755 56.9162 23.3252 57.2993 23.2366C58.2476 23.0173 59.9484 22.7485 60.8966 22.523C61.2791 22.432 62.4528 22.2642 64.3396 22.523ZM1.75779 23.9721C1.82613 23.5854 2.19543 23.3272 2.58266 23.3954L5.43105 23.8975C5.81828 23.9657 7.4268 24.4092 7.35847 24.796C7.29013 25.1827 5.9873 24.5283 4.71697 24.796L2.09228 25.298C1.70506 25.2298 1.68946 24.3589 1.75779 23.9721ZM156.464 26.619C155.615 27.1698 154.535 27.6507 154.151 27.7358C151.861 28.2441 152.67 28.9378 150.377 29.434C149.993 29.5171 149.329 28.8744 149.245 28.4906C149.162 28.1067 149.05 27.253 149.434 27.1698C151.724 26.6742 151.297 27.1268 153.585 26.619C153.969 26.5338 156.379 26.2356 156.464 26.619ZM109.811 27.1698C109.434 27.4694 108.342 28.5866 107.987 28.7548C106.292 29.5566 105.795 30.2484 104.151 31.1321C103.805 31.3182 103.017 30.7232 102.83 30.3774C102.644 30.0315 102.484 29.4314 102.83 29.2453C104.506 28.345 104.334 28.9194 106.038 28.1132C106.393 27.9451 108.491 27.4694 109.811 27.1698ZM63.5849 29.0807C63.6369 29.47 61.9212 30.4386 61.5315 30.4905C60.0799 30.6838 58.6463 32.3857 57.2056 32.6415C56.8185 32.7103 56.4489 30.9661 56.38 30.5795C56.3112 30.1928 56.8185 28.9367 57.2056 28.8679C58.6708 28.6078 59.876 29.2761 61.3433 29.0807C61.7331 29.0288 63.5329 28.6914 63.5849 29.0807ZM172.935 29.5825C173.325 29.5317 173.534 31.6861 173.585 32.0755C173.872 34.2744 175.066 34.4402 176.329 36.0378C176.572 36.346 175.78 36.7378 175.472 36.9811C175.163 37.2245 174.206 37.6668 173.962 37.3585C172.458 35.4555 172.939 35.0974 172.642 32.8184C172.591 32.4289 172.545 29.6333 172.935 29.5825ZM177.531 29.8053C177.797 29.5167 179.334 30.8657 179.623 31.1321L180.715 31.7733C181.004 32.0397 181.022 32.4896 180.755 32.7782C180.489 33.0668 180.038 33.0848 179.749 32.8184L178.679 32.0755C178.39 31.8091 177.264 30.0939 177.531 29.8053ZM175.283 30.1887C175.66 31.1321 176.411 32.4359 176.604 32.7782L177.837 33.7881C178.029 34.1304 178.456 34.9018 178.113 35.0944C177.77 35.2869 177.174 36.0027 176.981 35.6604L175.66 33.3962C175.468 33.0539 174.94 30.3812 175.283 30.1887ZM110.755 30.1887C110.947 30.531 109.057 31.6981 108.031 33.083L106.792 34.717C106.45 34.9095 105.476 34.6819 105.283 34.3396C105.09 33.9973 104.752 33.0227 105.094 32.8302L107.333 31.8434C107.676 31.6509 110.562 29.8464 110.755 30.1887Z" fill="#30302F"/>
</g>
<defs>
<clipPath id="clip0_9_574">
<rect width="191.698" height="40" fill="white"/>
</clipPath>
</defs>
</svg>
