<svg width="36" height="36" viewBox="0 0 36 36" fill="none" xmlns="http://www.w3.org/2000/svg">
<path d="M34.96 0.299271C34.286 -0.946729 27.556 1.98727 24.96 3.99927C24.96 3.99927 20.96 3.00127 17.96 3.00127C14.96 3.00127 10.96 3.99927 10.96 3.99927C8.36396 1.98727 1.63396 -0.946729 0.959961 0.299271C-1.04004 3.99927 1.95996 12.9993 1.95996 12.9993C1.06196 14.7953 0.668961 16.3273 0.336961 18.9863C0.689961 18.8893 1.09696 18.8293 1.60196 18.8293C6.60396 18.8293 9.45896 26.9743 8.95396 33.7543C12.501 35.4003 16.418 35.9993 17.96 35.9993C19.509 35.9993 23.457 35.3943 27.018 33.7293C26.521 26.9543 29.375 18.8293 34.371 18.8293C34.851 18.8293 35.239 18.8873 35.581 18.9743C35.25 16.3223 34.857 14.7923 33.96 12.9993C33.96 12.9993 36.96 3.99927 34.96 0.299271Z" fill="#FFCC4D"/>
<path d="M17.96 14.999C20.96 14.999 20.96 15.499 20.96 16.499C20.96 17.499 19.46 19.499 17.96 19.499C16.46 19.499 14.96 17.499 14.96 16.499C14.96 15.499 14.959 14.999 17.96 14.999Z" fill="#E75A70"/>
<path d="M1.95969 2.99942C2.40669 1.65742 7.59969 3.99942 8.59969 4.99942C8.59969 4.99942 3.95969 7.99942 2.95969 10.9994C2.95969 10.9994 0.959687 5.99942 1.95969 2.99942ZM33.9597 2.99942C33.5127 1.65742 28.3197 3.99942 27.3197 4.99942C27.3197 4.99942 31.9597 7.99942 32.9597 10.9994C32.9597 10.9994 34.9597 5.99942 33.9597 2.99942Z" fill="#F18F26"/>
<path d="M4.89355 5.6019C4.89355 4.1879 10.9596 6.9989 9.95955 7.9989C8.95955 8.9989 7.95955 9.6019 6.95955 10.6019C5.95955 11.6019 4.89355 6.6019 4.89355 5.6019ZM31.0256 5.6019C31.0256 4.1879 24.9596 6.9989 25.9596 7.9989C26.9596 8.9989 27.9596 9.6019 28.9596 10.6019C29.9596 11.6019 31.0256 6.6019 31.0256 5.6019Z" fill="#FFCC4D"/>
<path d="M10.9985 21.5013C9.19755 21.3613 7.60955 21.4853 6.23655 21.7353C6.43455 22.0273 6.62255 22.3353 6.80155 22.6593C8.00955 22.4663 9.38755 22.3803 10.9215 22.4973C11.2015 22.5383 11.4375 22.3133 11.4585 22.0373C11.4785 21.7623 11.2735 21.5213 10.9985 21.5013ZM9.67755 19.3583C5.67555 18.1083 2.28155 18.5863 0.935547 18.8703C1.14155 18.8463 1.35655 18.8283 1.60155 18.8283C2.49055 18.8283 3.31155 19.0883 4.05855 19.5503C5.54055 19.5293 7.38455 19.6903 9.37955 20.3143C9.42855 20.3303 9.47955 20.3363 9.52855 20.3363C9.74155 20.3363 9.93855 20.1993 10.0055 19.9853C10.0885 19.7223 9.94155 19.4413 9.67755 19.3583ZM29.7305 21.7443C28.3465 21.4883 26.7425 21.3603 24.9215 21.5013C24.6465 21.5213 24.4405 21.7623 24.4615 22.0373C24.4825 22.3123 24.7185 22.5383 24.9985 22.4973C26.5525 22.3793 27.9485 22.4673 29.1685 22.6663C29.3455 22.3433 29.5325 22.0353 29.7305 21.7443ZM31.9135 19.5503C32.6605 19.0883 33.4815 18.8283 34.3715 18.8283C34.5875 18.8283 34.7745 18.8463 34.9605 18.8653C33.5995 18.5813 30.2215 18.1153 26.2425 19.3583C25.9785 19.4413 25.8315 19.7213 25.9145 19.9853C25.9815 20.1993 26.1785 20.3363 26.3915 20.3363C26.4405 20.3363 26.4915 20.3293 26.5405 20.3143C28.5585 19.6823 30.4235 19.5243 31.9135 19.5503Z" fill="#FEE7B8"/>
<path d="M17.96 20.999C15.751 20.999 13.96 22.79 13.96 24.999V30.999C13.96 33.208 15.751 34.999 17.96 34.999C20.169 34.999 21.96 33.208 21.96 30.999V24.999C21.96 22.79 20.169 20.999 17.96 20.999Z" fill="#292F33"/>
<path d="M7.30629 10.6644C6.36029 13.8404 7.41329 16.9574 9.65829 17.6264C11.9043 18.2964 14.4923 16.2644 15.4373 13.0884C16.3843 9.91339 15.3313 6.79539 13.0873 6.12639C10.8423 5.45739 8.25329 7.49039 7.30629 10.6644ZM28.6113 10.6644C29.5573 13.8404 28.5043 16.9574 26.2593 17.6264C24.0133 18.2964 21.4253 16.2644 20.4803 13.0884C19.5343 9.91339 20.5873 6.79539 22.8313 6.12639C25.0763 5.45739 27.6643 7.49039 28.6113 10.6644Z" fill="#F5F8FA"/>
<path d="M35.7126 19.182C35.3986 19.065 35.0216 18.999 34.5556 18.999C29.9146 18.999 27.4906 29.001 28.6826 35.999H35.1426C33.2366 28.954 36.7986 21.91 35.7126 19.182ZM1.36362 18.999C0.899618 18.999 0.523618 19.065 0.210618 19.182L0.209618 19.196C-0.872382 21.939 2.68162 29.005 0.777618 35.999H7.23762C8.42762 29.039 6.00262 18.999 1.36362 18.999Z" fill="#FCAB40"/>
</svg>
