<svg width="37" height="36" viewBox="0 0 37 36" fill="none" xmlns="http://www.w3.org/2000/svg">
<path d="M36.658 19.9283C36.299 16.6593 35.924 14.9993 34.924 12.9993C34.924 12.9993 37.924 3.99927 35.924 0.299271C35.25 -0.946729 28.52 1.98727 25.924 3.99927C25.924 3.99927 21.924 3.00127 18.924 3.00127C15.924 3.00127 11.924 3.99927 11.924 3.99927C9.32795 1.98727 2.59795 -0.946729 1.92395 0.299271C-0.07605 3.99927 2.92395 12.9993 2.92395 12.9993C1.92395 14.9993 1.54895 16.6593 1.18995 19.9283C0.79495 23.5123 1.58095 26.3693 1.92395 26.9993C2.31395 27.7153 4.29095 30.0243 6.92395 31.9993C10.924 34.9993 16.924 35.9993 18.924 35.9993C20.924 35.9993 26.924 34.9993 30.924 31.9993C33.5569 30.0243 35.534 27.7153 35.924 26.9993C36.2669 26.3693 37.053 23.5123 36.658 19.9283Z" fill="#FFCC4D"/>
<path d="M18.9238 19.499C21.9238 19.499 21.9238 19.999 21.9238 20.999C21.9238 21.999 20.4238 23.999 18.9238 23.999C17.4238 23.999 15.9238 21.999 15.9238 20.999C15.9238 19.999 15.9228 19.499 18.9238 19.499Z" fill="#E75A70"/>
<path d="M2.92404 2.99942C3.37104 1.65742 8.56404 3.99942 9.56404 4.99942C9.56404 4.99942 4.92404 7.99942 3.92404 10.9994C3.92404 10.9994 1.92404 5.99942 2.92404 2.99942ZM34.924 2.99942C34.477 1.65742 29.284 3.99942 28.284 4.99942C28.284 4.99942 32.924 7.99942 33.924 10.9994C33.924 10.9994 35.924 5.99942 34.924 2.99942Z" fill="#F18F26"/>
<path d="M5.85889 5.6019C5.85889 4.1879 11.9249 6.9989 10.9249 7.9989C9.92489 8.9989 8.92489 9.6019 7.92489 10.6019C6.92489 11.6019 5.85889 6.6019 5.85889 5.6019ZM31.9909 5.6019C31.9909 4.1879 25.9249 6.9989 26.9249 7.9989C27.9249 8.9989 28.9249 9.6019 29.9249 10.6019C30.9249 11.6019 31.9909 6.6019 31.9909 5.6019Z" fill="#FFCC4D"/>
<path d="M1.62541 24.9988C1.47741 24.9988 1.33141 24.9338 1.23241 24.8088C1.06141 24.5918 1.09841 24.2778 1.31541 24.1068C1.47741 23.9798 5.33541 20.9868 11.9634 21.5018C12.2384 21.5218 12.4444 21.7628 12.4234 22.0378C12.4024 22.3128 12.1664 22.5388 11.8864 22.4978C5.65341 22.0238 1.97141 24.8638 1.93541 24.8928C1.84241 24.9638 1.73341 24.9988 1.62541 24.9988ZM10.4934 20.3358C10.4444 20.3358 10.3934 20.3288 10.3444 20.3138C5.55441 18.8168 1.60741 19.9668 1.56741 19.9778C1.30241 20.0588 1.02441 19.9078 0.944412 19.6428C0.865412 19.3778 1.01541 19.0998 1.27941 19.0208C1.45241 18.9688 5.56541 17.7738 10.6414 19.3588C10.9054 19.4418 11.0524 19.7218 10.9694 19.9858C10.9034 20.1988 10.7064 20.3358 10.4934 20.3358ZM36.2234 24.9988C36.3714 24.9988 36.5174 24.9338 36.6164 24.8088C36.7874 24.5918 36.7504 24.2778 36.5334 24.1068C36.3714 23.9798 32.5134 20.9868 25.8854 21.5018C25.6104 21.5218 25.4044 21.7628 25.4254 22.0378C25.4464 22.3128 25.6824 22.5388 25.9624 22.4978C32.1954 22.0238 35.8774 24.8638 35.9134 24.8928C36.0064 24.9638 36.1154 24.9988 36.2234 24.9988ZM27.3554 20.3358C27.4044 20.3358 27.4554 20.3288 27.5044 20.3138C32.2944 18.8168 36.2414 19.9668 36.2814 19.9778C36.5464 20.0588 36.8244 19.9078 36.9044 19.6428C36.9834 19.3778 36.8334 19.0998 36.5694 19.0208C36.3964 18.9688 32.2834 17.7738 27.2074 19.3588C26.9434 19.4418 26.7964 19.7218 26.8794 19.9858C26.9444 20.1988 27.1424 20.3358 27.3554 20.3358Z" fill="#FEE7B8"/>
<path d="M26.2867 30.635C25.8037 29.869 22.8717 25.499 18.9247 25.499C14.6907 25.499 11.6247 30.527 11.4967 30.742C11.3757 30.942 11.4117 31.199 11.5807 31.361C11.6747 31.452 11.7997 31.499 11.9247 31.499C12.0207 31.499 12.1177 31.472 12.2017 31.415C12.2307 31.395 15.1197 29.499 18.9247 29.499C22.7167 29.499 25.6197 31.396 25.6477 31.415C25.7337 31.473 25.8627 31.511 25.9287 31.499C26.2057 31.495 26.4447 31.28 26.4447 30.999C26.4447 30.855 26.3847 30.727 26.2867 30.635Z" fill="#292F33"/>
<path d="M12.9253 17.999C14.0299 17.999 14.9253 16.432 14.9253 14.499C14.9253 12.566 14.0299 10.999 12.9253 10.999C11.8207 10.999 10.9253 12.566 10.9253 14.499C10.9253 16.432 11.8207 17.999 12.9253 17.999Z" fill="#292F33"/>
<path d="M24.9258 17.999C26.0304 17.999 26.9258 16.432 26.9258 14.499C26.9258 12.566 26.0304 10.999 24.9258 10.999C23.8212 10.999 22.9258 12.566 22.9258 14.499C22.9258 16.432 23.8212 17.999 24.9258 17.999Z" fill="#292F33"/>
<path d="M31.9262 13.999C31.6212 13.999 31.3222 13.861 31.1252 13.599C28.4842 10.078 25.0642 10 24.9192 9.99902C24.3692 9.99302 23.9252 9.54302 23.9282 8.99402C23.9312 8.44302 24.3752 7.99902 24.9252 7.99902C25.1092 7.99902 29.4622 8.04902 32.7252 12.399C33.0572 12.841 32.9672 13.468 32.5252 13.799C32.3452 13.934 32.1352 13.999 31.9262 13.999ZM5.92424 13.999C5.71624 13.999 5.50524 13.934 5.32524 13.799C4.88324 13.468 4.79424 12.841 5.12524 12.399C8.38724 8.04902 12.7412 7.99902 12.9252 7.99902C13.4772 7.99902 13.9252 8.44702 13.9252 8.99902C13.9252 9.55002 13.4802 9.99702 12.9292 9.99902C12.7732 10.001 9.36024 10.085 6.72424 13.599C6.52924 13.861 6.22824 13.999 5.92424 13.999Z" fill="#292F33"/>
<path d="M15.9243 30.999C15.9243 33.761 13.6853 35.999 10.9243 35.999C8.16332 35.999 5.92432 33.761 5.92432 30.999C5.92432 28.237 9.92432 17.999 10.9243 17.999C11.9243 17.999 15.9243 28.237 15.9243 30.999Z" fill="#5DADEC"/>
</svg>
