<svg width="18" height="24" viewBox="0 0 18 24" fill="none" xmlns="http://www.w3.org/2000/svg">
<path d="M0.983534 10.6195C1.69263 12.365 1.34717 18.7831 1.25626 22.4559C1.25626 22.6559 1.4199 23.0559 2.07445 23.0559H15.929C16.5835 23.0559 16.7472 22.6559 16.7472 22.4559C16.6563 18.7831 16.3108 12.365 17.0199 10.6195C17.39 9.70848 18.1654 7.29224 17.0199 6.03769C16.1035 5.03405 15.1472 4.78314 14.7835 4.78314C14.8744 3.71042 14.489 1.43405 12.2199 0.910417C10.649 0.692235 9.4199 1.47405 9.00171 1.89224C8.58353 1.47405 7.35444 0.692235 5.78353 0.910417C3.51444 1.43405 3.12899 3.71042 3.2199 4.78314C2.85626 4.78314 1.8999 5.03405 0.983534 6.03769C-0.16192 7.29224 0.61343 9.70848 0.983534 10.6195Z" fill="#E69E3D"/>
<path fill-rule="evenodd" clip-rule="evenodd" d="M8.56538 4.94681C8.56538 6.12167 7.78391 7.07408 6.81993 7.07408C5.85594 7.07408 5.07447 6.12167 5.07447 4.94681C5.07447 3.77195 5.85594 2.81953 6.81993 2.81953C7.78391 2.81953 8.56538 3.77195 8.56538 4.94681ZM12.929 4.94681C12.929 6.12167 12.1476 7.07408 11.1836 7.07408C10.2196 7.07408 9.43811 6.12167 9.43811 4.94681C9.43811 3.77195 10.2196 2.81953 11.1836 2.81953C12.1476 2.81953 12.929 3.77195 12.929 4.94681ZM4.14171 10.9678C5.09049 10.7973 5.69115 9.72162 5.4833 8.56529C5.27546 7.40896 4.33783 6.60982 3.38905 6.78036C2.44027 6.95089 1.83961 8.02653 2.04746 9.18286C2.2553 10.3392 3.19293 11.1383 4.14171 10.9678ZM12.5417 8.56529C12.3339 9.72162 12.9345 10.7973 13.8833 10.9678C14.8321 11.1383 15.7697 10.3392 15.9776 9.18286C16.1854 8.02653 15.5847 6.95089 14.636 6.78036C13.6872 6.60982 12.7496 7.40896 12.5417 8.56529ZM11.373 15.842C10.7621 16.4266 9.94892 16.7832 9.05629 16.7832C8.13558 16.7832 7.29944 16.4038 6.68251 15.7862C6.37442 16.1315 5.93898 16.3468 5.45629 16.3468C4.52243 16.3468 3.76538 15.5409 3.76538 14.5468C3.76538 13.5527 4.52243 12.7468 5.45629 12.7468C5.51963 12.7468 5.58214 12.7505 5.64367 12.7577C5.84458 10.97 7.29584 9.58316 9.05629 9.58316C10.8138 9.58316 12.2631 10.9654 12.4679 12.7487C12.4942 12.7475 12.5206 12.7468 12.5472 12.7468C13.4811 12.7468 14.2381 13.5527 14.2381 14.5468C14.2381 15.5409 13.4811 16.3468 12.5472 16.3468C12.0911 16.3468 11.6772 16.1546 11.373 15.842Z" fill="#36343A"/>
</svg>
