<svg width="44" height="56" viewBox="0 0 44 56" fill="none" xmlns="http://www.w3.org/2000/svg">
<path d="M1.95878 24.5488C3.73151 28.9124 2.86787 44.9578 2.64059 54.1397C2.6406 54.6397 3.04969 55.6397 4.68605 55.6397H39.3224C40.9588 55.6397 41.3679 54.6397 41.3679 54.1397C41.1406 44.9578 40.277 28.9124 42.0497 24.5488C42.975 22.2712 44.9133 16.2306 42.0497 13.0942C39.7588 10.5851 37.3679 9.95784 36.4588 9.95784C36.6861 7.27603 35.7224 1.58512 30.0497 0.276028C26.1224 -0.269427 23.0497 1.68512 22.0042 2.73057C20.9588 1.68512 17.8861 -0.269427 13.9588 0.276028C8.28605 1.58512 7.32241 7.27603 7.54968 9.95784C6.64059 9.95784 4.24968 10.5851 1.95878 13.0942C-0.904861 16.2306 1.03351 22.2712 1.95878 24.5488Z" fill="#E6B030"/>
<path fill-rule="evenodd" clip-rule="evenodd" d="M20.9133 10.367C20.9133 13.3042 18.9597 15.6852 16.5497 15.6852C14.1397 15.6852 12.1861 13.3042 12.1861 10.367C12.1861 7.42986 14.1397 5.04883 16.5497 5.04883C18.9597 5.04883 20.9133 7.42986 20.9133 10.367ZM31.8224 10.367C31.8224 13.3042 29.8688 15.6852 27.4588 15.6852C25.0488 15.6852 23.0952 13.3042 23.0952 10.367C23.0952 7.42986 25.0488 5.04883 27.4588 5.04883C29.8688 5.04883 31.8224 7.42986 31.8224 10.367ZM9.85416 25.4195C12.2261 24.9931 13.7277 22.304 13.2081 19.4132C12.6885 16.5224 10.3445 14.5245 7.9725 14.9509C5.60054 15.3772 4.09891 18.0663 4.61852 20.9571C5.13812 23.848 7.4822 25.8458 9.85416 25.4195ZM30.8542 19.4132C30.3345 22.304 31.8362 24.9931 34.2081 25.4195C36.5801 25.8458 38.9242 23.848 39.4438 20.9571C39.9634 18.0663 38.4618 15.3772 36.0898 14.9509C33.7178 14.5245 31.3738 16.5224 30.8542 19.4132ZM27.9324 37.6051C26.405 39.0665 24.3722 39.9579 22.1406 39.9579C19.8388 39.9579 17.7485 39.0096 16.2062 37.4655C15.4359 38.3288 14.3473 38.867 13.1406 38.867C10.806 38.867 8.91334 36.8523 8.91334 34.367C8.91334 31.8817 10.806 29.867 13.1406 29.867C13.2989 29.867 13.4552 29.8763 13.6091 29.8943C14.1113 25.425 17.7395 21.9579 22.1406 21.9579C26.5344 21.9579 30.1577 25.4134 30.6696 29.8719C30.7353 29.8686 30.8014 29.867 30.8679 29.867C33.2025 29.867 35.0952 31.8817 35.0952 34.367C35.0952 36.8523 33.2025 38.867 30.8679 38.867C29.7276 38.867 28.6928 38.3864 27.9324 37.6051Z" fill="#36343A"/>
</svg>
