<svg width="24" height="30" viewBox="0 0 24 30" fill="none" xmlns="http://www.w3.org/2000/svg">
<path d="M1.31136 13.1594C2.25682 15.4866 1.79621 24.0442 1.67499 28.9412C1.675 29.2078 1.89318 29.7412 2.76591 29.7412H21.2386C22.1114 29.7412 22.3295 29.2078 22.3295 28.9412C22.2083 24.0442 21.7477 15.4866 22.6932 13.1594C23.1867 11.9447 24.2205 8.723 22.6932 7.05027C21.4714 5.71209 20.1962 5.37755 19.7114 5.37755C19.8326 3.94724 19.3186 0.912092 16.2932 0.21391C14.1986 -0.0769991 12.5598 0.965425 12.0023 1.523C11.4447 0.965425 9.80591 -0.0769991 7.71136 0.21391C4.6859 0.912092 4.17196 3.94724 4.29318 5.37755C3.80833 5.37755 2.53318 5.71209 1.31136 7.05027C-0.215914 8.723 0.817886 11.9447 1.31136 13.1594Z" fill="#E6B030"/>
<path fill-rule="evenodd" clip-rule="evenodd" d="M11.4204 5.59576C11.4204 7.16224 10.3785 8.43213 9.09315 8.43213C7.80784 8.43213 6.76588 7.16224 6.76588 5.59576C6.76588 4.02928 7.80784 2.7594 9.09315 2.7594C10.3785 2.7594 11.4204 4.02928 11.4204 5.59576ZM17.2386 5.59576C17.2386 7.16224 16.1967 8.43213 14.9113 8.43213C13.626 8.43213 12.5841 7.16224 12.5841 5.59576C12.5841 4.02928 13.626 2.7594 14.9113 2.7594C16.1967 2.7594 17.2386 4.02928 17.2386 5.59576ZM5.5222 13.6237C6.78724 13.3964 7.58811 11.9622 7.31099 10.4204C7.03387 8.87864 5.78369 7.81311 4.51865 8.04049C3.25361 8.26788 2.45274 9.70206 2.72986 11.2438C3.00698 12.7856 4.25716 13.8511 5.5222 13.6237ZM16.7222 10.4204C16.4451 11.9622 17.2459 13.3964 18.511 13.6237C19.776 13.8511 21.0262 12.7856 21.3033 11.2438C21.5805 9.70206 20.7796 8.26788 19.5145 8.04049C18.2495 7.81311 16.9993 8.87863 16.7222 10.4204ZM15.1639 20.1227C14.3493 20.9022 13.2651 21.3776 12.075 21.3776C10.8474 21.3776 9.73251 20.8718 8.90994 20.0483C8.49915 20.5087 7.91856 20.7958 7.27497 20.7958C6.02982 20.7958 5.02043 19.7212 5.02043 18.3958C5.02043 17.0703 6.02982 15.9958 7.27497 15.9958C7.35942 15.9958 7.44278 16.0007 7.52481 16.0103C7.79269 13.6267 9.7277 11.7776 12.075 11.7776C14.4183 11.7776 16.3508 13.6205 16.6238 15.9984C16.6588 15.9966 16.6941 15.9958 16.7295 15.9958C17.9747 15.9958 18.9841 17.0703 18.9841 18.3958C18.9841 19.7212 17.9747 20.7958 16.7295 20.7958C16.1214 20.7958 15.5695 20.5394 15.1639 20.1227Z" fill="#36343A"/>
</svg>
