<svg width="20" height="22" viewBox="0 0 20 22" fill="none" xmlns="http://www.w3.org/2000/svg">
<path d="M18.6445 12.527L18.25 12.299C17.7805 12.0283 17.5 11.5422 17.5 11C17.5 10.4578 17.7805 9.97175 18.25 9.701L18.6445 9.473C19.7215 8.8505 20.0898 7.4765 19.468 6.3995L18.718 5.1005C18.0978 4.02575 16.7185 3.65675 15.6445 4.277L15.25 4.50425C14.7805 4.77575 14.2188 4.77575 13.75 4.50425C13.2805 4.23275 13 3.7475 13 3.20525V2.75C13 1.5095 11.9905 0.5 10.75 0.5H9.25002C8.00952 0.5 7.00002 1.5095 7.00002 2.75V3.206C7.00002 3.74825 6.71952 4.2335 6.25002 4.505C5.78052 4.77575 5.21952 4.7765 4.75002 4.505L4.35552 4.277C3.28152 3.65675 1.90227 4.02575 1.28127 5.1005L0.531273 6.3995C-0.0904774 7.4765 0.277773 8.85125 1.35477 9.473L1.75002 9.701C2.21952 9.97175 2.50002 10.4578 2.50002 11C2.50002 11.5422 2.21952 12.0283 1.75002 12.299L1.35552 12.527C0.278523 13.1487 -0.0897275 14.5235 0.532023 15.6005L1.28202 16.8995C1.90302 17.9742 3.28227 18.3433 4.35552 17.723L4.75002 17.4958C5.21952 17.2235 5.78052 17.225 6.25002 17.4958C6.71952 17.7673 7.00002 18.2525 7.00002 18.7948V19.25C7.00002 20.4905 8.00952 21.5 9.25002 21.5H10.75C11.9905 21.5 13 20.4905 13 19.25V18.794C13 18.2518 13.2805 17.7665 13.75 17.495C14.2188 17.2243 14.7805 17.2235 15.25 17.495L15.6445 17.723C16.7185 18.3425 18.0978 17.9735 18.718 16.8995L19.468 15.6005C20.0898 14.5235 19.7215 13.1487 18.6445 12.527ZM10 14.75C7.93227 14.75 6.25002 13.0677 6.25002 11C6.25002 8.93225 7.93227 7.25 10 7.25C12.0678 7.25 13.75 8.93225 13.75 11C13.75 13.0677 12.0678 14.75 10 14.75Z" fill="#36343A"/>
</svg>
