<svg width="230" height="48" viewBox="0 0 230 48" fill="none" xmlns="http://www.w3.org/2000/svg">
<path d="M58.5299 1.48121L63.3496 46.2858H47.3457L46.357 14.3178L40.1779 46.2858H23.9887L17.686 14.5646L16.7591 46.2858H0.755249L5.57495 1.48121H26.5839L31.9597 30.6721L36.6558 1.48121H58.5299ZM116.476 13.0218H82.8615V19.5018C84.9624 19.5429 88.1137 19.5635 92.3155 19.5635C99.5656 19.5635 106.939 19.4401 114.437 19.1932V31.2892C106.939 31.0012 99.0301 30.8572 90.7089 30.8572C87.2486 30.8572 84.6328 30.8778 82.8615 30.9189V46.2858H68.2788C68.6083 38.3041 68.7731 30.8366 68.7731 23.8835C68.7731 16.9303 68.6083 9.46292 68.2788 1.48121H116.476V13.0218ZM148.629 46.9029C139.319 46.9029 132.46 44.9281 128.053 40.9783C123.645 37.0286 121.441 31.3921 121.441 24.0686C121.441 16.7041 123.645 10.8823 128.053 6.60349C132.46 2.32463 139.319 0.185204 148.629 0.185204C161.646 0.185204 170.359 4.64921 174.767 13.5772C171.059 14.8526 166.713 16.7658 161.729 19.3166C160.534 17.0126 158.639 15.3052 156.044 14.1943C153.49 13.0835 150.874 12.5281 148.196 12.5281C144.242 12.5281 141.296 13.5772 139.36 15.6755C137.424 17.7326 136.456 20.2835 136.456 23.3281C136.456 26.6195 137.486 29.3143 139.546 31.4126C141.647 33.4698 144.839 34.4983 149.123 34.4983C152.542 34.4983 155.261 33.9429 157.28 32.8321C159.298 31.6801 160.781 29.8698 161.729 27.4012C165.107 29.2115 169.432 31.2481 174.706 33.5109C172.646 38.4892 169.205 41.9658 164.386 43.9406C159.566 45.9155 154.314 46.9029 148.629 46.9029ZM203.32 20.7361H229.705V46.2858H218.83L217.532 35.3624C216.296 39.2709 214.092 42.1715 210.92 44.0641C207.748 45.9566 203.876 46.9029 199.304 46.9029C195.143 46.9029 191.436 45.9772 188.181 44.1258C184.968 42.2743 182.435 39.6206 180.581 36.1646C178.768 32.7086 177.862 28.6766 177.862 24.0686C177.862 16.7041 180.066 10.8823 184.474 6.60349C188.882 2.32463 195.74 0.185204 205.05 0.185204C210.364 0.185204 215.04 1.0492 219.077 2.77721C223.155 4.50521 226.615 7.17949 229.458 10.8001C227.604 11.7463 223.979 13.6389 218.582 16.4778L217.038 17.3418C215.431 15.7372 213.557 14.5441 211.415 13.7623C209.273 12.9395 207.007 12.5281 204.618 12.5281C200.663 12.5281 197.718 13.5772 195.781 15.6755C193.845 17.7326 192.877 20.2835 192.877 23.3281C192.877 26.6195 193.907 29.2732 195.967 31.2892C198.068 33.3052 201.26 34.3132 205.544 34.3132C207.398 34.3132 209.19 34.0458 210.92 33.5109C212.692 32.9761 214.175 32.0503 215.369 30.7338H203.32V20.7361Z" fill="#E6B030"/>
<path fill-rule="evenodd" clip-rule="evenodd" d="M135.721 1.92471C136.098 1.64194 137.076 1.20787 137.359 1.58489L138.726 4.50521C139.009 4.88224 140.505 7.20092 140.128 7.48369C139.222 6.06135 137.242 3.99966 136.959 3.62263L134.695 2.71697C134.412 2.33994 135.343 2.20748 135.721 1.92471ZM215.285 1.81131C215.584 2.17606 214.737 3.77267 214.372 4.0711L212.16 5.87848C211.795 6.17691 210.758 6.72142 209.4 7.12012C209.101 6.75536 210.713 4.85602 211.078 4.55759L212.569 1.3585C212.934 1.06007 214.987 1.44656 215.285 1.81131ZM220.97 3.53329C221.235 3.92301 221.134 4.45376 220.744 4.71877L215.718 8.13271C215.328 8.39772 213.74 8.76709 213.474 8.37737C214.372 7.69813 217.159 4.8226 217.549 4.55759L218.455 2.49058C218.845 2.22557 220.705 3.14357 220.97 3.53329ZM130.907 3.72887C131.175 3.34113 132.446 3.12832 132.835 3.39622C133.143 3.60918 133.527 3.82607 133.789 4.07546C134.242 4.50521 134.695 4.75471 134.921 5.49442C135.343 5.70518 136.28 6.79244 136.732 7.58785C135.55 7.24527 134.729 6.22027 133.563 5.49442C132.823 5.03364 132.498 4.89872 131.752 4.75471C131.419 4.69045 130.889 4.9405 130.62 4.75471C130.232 4.48681 130.638 4.11661 130.907 3.72887ZM67.4383 6.31019C67.5006 5.84304 67.9303 5.51484 68.3979 5.57712L71.4133 5.97877C71.881 6.04105 77.9364 5.51162 77.874 5.97877C77.8117 6.44591 71.6552 7.73275 71.1875 7.67046L68.1721 7.26882C67.7045 7.20653 67.3759 6.77734 67.4383 6.31019ZM223.977 5.93087C224.249 6.31589 224.157 6.84834 223.772 7.12012L220.354 9.52996C219.969 9.80174 217.821 10.3473 217.549 9.96228C217.277 9.57725 221.012 7.06425 221.398 6.79247L222.982 4.75473C223.368 4.48295 223.705 5.54585 223.977 5.93087ZM125.635 7.81719C125.864 7.40483 126.383 7.25552 126.796 7.48369C127.023 7.60926 128.583 8.25205 128.809 8.37735C130.315 9.2117 130.47 9.51853 131.991 10.2786C132.413 10.4893 133.337 11.3207 134.242 12.417C133 12.2264 130.272 10.4893 129.85 10.2786C128.293 9.50096 128.337 9.58814 126.545 8.97699C126.32 8.85197 126.194 9.10129 125.969 8.97699C125.556 8.74882 125.407 8.22956 125.635 7.81719ZM79.2323 9.28301C79.275 9.75236 74.8631 10.0416 74.3932 10.0843C72.5768 10.2492 70.4692 10.7732 68.6355 10.8679C68.1644 10.8923 68.0594 10.1508 68.035 9.68018C68.0106 9.20952 68.1644 8.40897 68.6355 8.38463C70.4385 8.29146 72.4338 8.54853 74.2386 8.38463C74.7084 8.34196 79.1896 8.81366 79.2323 9.28301ZM180.025 12.4744C180.122 12.013 180.294 11.2246 180.756 11.3207C181.483 11.472 182.527 12.1128 183.298 12.2626C184.23 12.4435 185.171 12.6264 186.066 12.8181C186.528 12.9169 187.825 13.4851 187.727 13.9459C185.63 13.3585 184.733 13.4572 184.272 13.3585C183.352 13.1617 182.913 13.3585 181.782 13.5849C181.022 13.4378 180.826 13.7514 180.025 13.5849C179.564 13.4888 179.929 12.9357 180.025 12.4744ZM79.2323 14.0377C78.7795 14.0377 73.5728 13.3116 71.5623 13.9012L68.9322 14.717C68.4616 14.7505 67.8686 13.7817 67.835 13.3116C67.8014 12.8416 68.165 11.8072 68.6355 11.7736L71.4406 12.1989C71.9112 12.1653 79.1987 13.5676 79.2323 14.0377ZM121.929 13.0696C122.03 12.609 122.485 12.3169 122.946 12.417C123.947 12.6345 123.937 12.8676 124.961 13.0696C127.037 13.4794 126.739 13.2369 128.809 13.8113C129.264 13.9374 131.526 14.4906 132.835 15.4874C131.124 14.9434 129.716 14.8431 129.262 14.717C127.252 14.1592 128.006 14.4862 125.969 14.0847C124.93 13.8798 123.653 14.3172 122.583 14.0847C122.122 13.9846 121.829 13.5301 121.929 13.0696ZM177.001 17.1476C177.067 16.681 178.598 15.783 179.065 15.849C180.065 15.9905 179.966 16.6971 180.968 16.8222C181.436 16.8806 181.782 17.434 182.687 17.8868C181.329 18.5156 179.759 17.9452 179.291 17.8868C178.28 17.7605 178.736 18.2549 177.727 18.1122C177.259 18.0461 176.934 17.6143 177.001 17.1476ZM68.0339 17.8697C68.0339 17.3984 68.3722 16.3019 68.8439 16.3019L73.3107 17.0164C73.7825 17.0164 78.3268 17.1891 78.3268 17.6604C78.3268 18.1317 73.7825 18.723 73.3107 18.723L68.8881 19.4717C68.4163 19.4717 68.0339 18.341 68.0339 17.8697ZM119.7 19.2318C119.724 18.7611 120.125 18.3991 120.597 18.4232L128.437 18.8249C128.908 18.849 131.073 19.4717 132.24 19.6981C130.846 20.1509 125.205 19.7222 124.734 19.6981L120.597 20.5293C120.125 20.5052 119.676 19.7024 119.7 19.2318ZM60.4694 20.2734C60.5838 20.7306 60.3056 21.1939 59.8479 21.3082L56.8209 21.4906C56.3632 21.6049 55.0099 21.7358 53.6516 21.7358C53.5372 21.2786 55.7594 20.5701 56.217 20.4558L59.4335 19.6525C59.8912 19.5382 60.355 19.8162 60.4694 20.2734ZM176.59 22.4886C176.59 22.0173 177.461 21.5094 177.933 21.5094H181.329C181.801 21.5094 186.139 22.0173 186.139 22.4886C184.272 23.0943 182.48 23.0943 182.008 23.0943L177.727 24.2264C177.255 24.2264 176.59 22.9599 176.59 22.4886ZM2.51034 22.5454C2.58997 22.0809 2.93067 21.4299 3.39567 21.5094C4.76832 21.7442 5.34133 22.5085 7.01772 23.3207C7.47776 23.4252 10.5179 24.5403 10.4134 24.9999C10.3088 25.4594 8.50633 24.6251 7.1836 24.3248C5.86087 24.0245 4.54763 23.7596 3.20814 23.5305C2.74313 23.451 2.43072 23.0099 2.51034 22.5454ZM67.4308 23.091C67.4308 22.6198 68.2761 21.4906 68.7479 21.4906L75.321 22.2377C75.7928 22.2377 78.3268 22.6198 78.3268 23.091C78.3268 23.5623 75.7928 23.9444 75.321 23.9444L68.6355 24.7918C68.1638 24.7918 67.4308 23.5623 67.4308 23.091ZM61.2938 24.0009C61.3459 24.4693 61.5669 25.9857 61.098 26.0377L56.8209 25.5849C56.352 25.6369 53.9472 25.6987 52.5197 25.1321C52.4676 24.6637 58.163 24.0529 58.6319 24.0009L60.3505 23.247C60.8194 23.195 61.2417 23.5325 61.2938 24.0009ZM118.896 24.2481C118.922 23.7776 119.326 23.4176 119.797 23.444C120.409 23.4783 121.02 23.5147 121.628 23.551C124.101 23.6985 122.283 23.444 124.734 23.444C125.206 23.444 129.85 24.2263 129.85 24.6976C129.85 25.1689 127.017 24.6976 126.545 24.6976C124.038 24.6976 123.981 25.4012 121.504 25.2534C120.901 25.2174 120.3 25.1815 119.701 25.148C119.23 25.1215 118.869 24.7187 118.896 24.2481ZM2.75372 24.9999C2.9197 24.5587 3.41225 24.3355 3.85386 24.5013C5.65156 25.1762 7.31941 25.7879 9.11104 26.0632C9.57732 26.1349 9.96064 26.2641 11.3189 27.0364C9.73426 27.0364 8.02851 27.108 7.56222 27.0364C5.57034 26.7303 4.58262 27.3856 2.8018 26.717C2.36019 26.5512 2.58775 25.441 2.75372 24.9999ZM185.708 26.2641C185.852 26.713 182.457 27.1543 182.008 27.2979C180.534 27.7692 179.668 29.1942 178.192 29.6604C177.742 29.8024 177.777 28.8181 177.635 28.3688C177.493 27.9194 177.742 27.44 178.192 27.2979C179.666 26.8324 179.283 26.9613 180.756 26.4906C181.205 26.3469 185.565 25.8153 185.708 26.2641ZM129.85 27.849C128.831 28.3019 126.551 29.549 126.093 29.6604C124.126 30.1383 124.157 30.8528 122.244 31.4717C121.795 31.6169 120.489 30.6302 120.343 30.1819C120.198 29.7335 120.444 29.2523 120.893 29.1071C122.865 28.469 122.752 29.01 124.734 28.5283C125.193 28.4169 128.356 27.6226 129.85 27.849ZM53.6516 28.3019C55.0099 27.8839 57.481 27.8839 57.9528 27.8839L60.2438 27.6598C60.7156 27.6598 61.098 28.0419 61.098 28.5132C61.098 28.9845 61.5698 29.7097 61.098 29.7097L58.8583 29.2075C58.3865 29.2075 55.689 28.7547 53.6516 28.3019ZM77.1949 27.0276C75.8366 27.6598 72.8999 29.6006 72.441 29.7097C71.3016 29.9807 69.7782 31.8867 68.6355 32.1509C68.1759 32.2572 67.7602 30.1689 67.6538 29.7097C67.5474 29.2506 68.2883 27.9902 68.7479 27.8839C69.8857 27.6208 71.9263 27.2982 73.0639 27.0276C73.5229 26.9184 74.9311 26.717 77.1949 27.0276ZM2.10903 28.7665C2.19101 28.3024 2.63411 27.9926 3.0987 28.0745L6.51621 28.6769C6.98081 28.7588 8.91072 29.2911 8.82874 29.7552C8.74675 30.2193 7.1836 29.434 5.65945 29.7552L2.51035 30.3576C2.04575 30.2757 2.02704 29.2306 2.10903 28.7665ZM187.727 31.9428C186.707 32.6038 185.411 33.1808 184.951 33.283C182.204 33.8929 183.174 34.7254 180.423 35.3207C179.962 35.4205 179.165 34.6493 179.065 34.1887C178.965 33.7281 178.83 32.7036 179.291 32.6038C182.039 32.0091 181.527 32.5521 184.272 31.9428C184.732 31.8406 187.624 31.4828 187.727 31.9428ZM131.752 32.6038C131.299 32.9633 129.989 34.3039 129.563 34.5057C127.529 35.4679 126.934 36.2981 124.961 37.3585C124.545 37.5818 123.6 36.8678 123.376 36.4528C123.152 36.0378 122.961 35.3176 123.376 35.0943C125.386 34.014 125.18 34.7033 127.224 33.7358C127.651 33.5341 130.167 32.9633 131.752 32.6038ZM76.2894 34.8969C76.3517 35.364 74.2933 36.5263 73.8257 36.5886C72.084 36.8205 70.3641 38.8628 68.6355 39.1698C68.171 39.2523 67.7276 37.1594 67.645 36.6953C67.5624 36.2313 68.171 34.724 68.6355 34.6415C70.3935 34.3293 71.8395 35.1313 73.5999 34.8969C74.0675 34.8346 76.227 34.4297 76.2894 34.8969ZM207.488 35.499C207.956 35.438 208.207 38.0233 208.268 38.4906C208.612 41.1293 210.045 41.3282 211.56 43.2453C211.852 43.6152 210.902 44.0853 210.532 44.3774C210.161 44.6694 209.013 45.2001 208.721 44.8302C206.916 42.5466 207.493 42.1169 207.136 39.382C207.075 38.9147 207.02 35.56 207.488 35.499ZM213.002 35.7664C213.322 35.4201 215.165 37.0388 215.512 37.3585L216.822 38.128C217.169 38.4476 217.191 38.9875 216.871 39.3338C216.551 39.6801 216.01 39.7017 215.664 39.382L214.38 38.4906C214.033 38.1709 212.682 36.1127 213.002 35.7664ZM210.305 36.2264C210.758 37.3585 211.659 38.923 211.89 39.3338L213.369 40.5457C213.6 40.9564 214.112 41.8822 213.701 42.1132C213.29 42.3443 212.574 43.2032 212.343 42.7925L210.758 40.0755C210.527 39.6647 209.894 36.4575 210.305 36.2264ZM132.884 36.2264C133.115 36.6372 130.846 38.0377 129.616 39.6996L128.13 41.6604C127.719 41.8914 126.55 41.6183 126.319 41.2075C126.088 40.7968 125.681 39.6273 126.093 39.3962L128.778 38.2121C129.189 37.981 132.653 35.8156 132.884 36.2264Z" fill="#36343A"/>
</svg>
