<svg width="20" height="22" viewBox="0 0 20 22" fill="none" xmlns="http://www.w3.org/2000/svg">
<path d="M10.0568 0C11.8561 0 13.5133 0.288998 15.0284 0.866995C16.5625 1.44499 17.7746 2.24877 18.6648 3.27833C19.5549 4.30788 20 5.49097 20 6.82759C20 7.91133 19.7254 8.84155 19.1761 9.61823C18.6269 10.3949 17.9261 11.0271 17.0739 11.5148L15.5682 12.3276C14.7538 12.7611 14.214 13.0591 13.9489 13.2217C13.5133 13.4745 13.2102 13.7545 13.0398 14.0616C12.8693 14.3686 12.7841 14.7299 12.7841 15.1453H6.27841C6.27841 13.7726 6.61932 12.6256 7.30114 11.7044C7.98295 10.7652 9.12879 9.95238 10.7386 9.26601C11.4583 8.95895 11.9792 8.6248 12.3011 8.26355C12.642 7.88424 12.8125 7.45977 12.8125 6.99015C12.8125 6.46634 12.5473 6.01478 12.017 5.63547C11.5057 5.25616 10.8523 5.0665 10.0568 5.0665C8.97727 5.0665 8.13447 5.31938 7.52841 5.82512C6.94129 6.33087 6.64773 7.04434 6.64773 7.96552C6.64773 8.32677 6.70455 8.7422 6.81818 9.21182C5.30303 8.79639 3.03977 8.58867 0.0284091 8.58867C0.00946968 8.42611 0 8.20033 0 7.91133C0 6.39409 0.416667 5.03941 1.25 3.84729C2.10227 2.63711 3.28599 1.69787 4.80114 1.02956C6.33523 0.343186 8.08712 0 10.0568 0ZM12.8125 22H6.22159V17.1773H12.8125V22Z" fill="#36343A"/>
</svg>
