<svg width="22" height="21" viewBox="0 0 22 21" fill="none" xmlns="http://www.w3.org/2000/svg">
<path d="M9.98312 0.737793C10.3032 -0.24593 11.6968 -0.245932 12.0169 0.737791L13.8806 6.46596C14.0238 6.9059 14.4343 7.20375 14.8975 7.20375H20.9287C21.9645 7.20375 22.3952 8.52735 21.5572 9.13532L16.6778 12.6755C16.3031 12.9474 16.1463 13.4294 16.2894 13.8693L18.1532 19.5975C18.4732 20.5812 17.3458 21.3992 16.5078 20.7912L11.6285 17.251C11.2537 16.9791 10.7463 16.9791 10.3715 17.251L5.49217 20.7912C4.65421 21.3992 3.52675 20.5812 3.84682 19.5975L5.71057 13.8693C5.85371 13.4294 5.69691 12.9474 5.32216 12.6755L0.442794 9.13532C-0.395161 8.52735 0.0354897 7.20375 1.07126 7.20375H7.10249C7.5657 7.20375 7.97623 6.9059 8.11937 6.46596L9.98312 0.737793Z" fill="#E6AF2E"/>
</svg>
